<svg height="65.225" width="76.203" xmlns="http://www.w3.org/2000/svg"><path d="m662.47995 647.12941c-5.39025 0-9.82229 4.43204-9.82229 9.82229 0 5.39023 4.43204 9.82229 9.82229 9.82229 5.39023 0 9.82229-4.43206 9.82229-9.82229 0-5.39025-4.43206-9.82229-9.82229-9.82229zm9.5013-36.59285c-14.33647 0-21.12415 11.12221-22.72608 14.12356h-4.81485-.1284l-.19249.0641s-3.74201.55178-7.51116 2.95311-7.70376 6.93907-7.70376 14.18775c0 8.06331 4.44979 12.80858 8.73092 15.08653 4.28114 2.27795 8.53834 2.43952 8.53834 2.43952l.0641.0641h.0641l16.94826-.1925v-4.10867l-16.88407.1925s-.12243.00039-.12839 0c-.19393-.0123-3.39984-.31083-6.67659-2.05434-3.37677-1.79674-6.54819-4.79089-6.54819-11.42724 0-5.83776 2.80618-8.82781 5.77781-10.72106 2.97164-1.89326 5.97041-2.37533 5.97041-2.37533h5.64943 1.34815l.51359-1.15556s5.79635-12.96799 19.70878-12.96799c6.99008 0 11.19126 2.53365 14.05935 5.39263 2.8681 2.85898 4.25061 6.03939 5.07164 7.76795.45105.94962.83778 4.41678.83458 7.31857-.004 2.90179-.19249 5.39263-.19249 5.39263l-.19249 2.31113 2.31112-.1284s1.92356-.0232 3.72349.77038c1.79992.79361 3.39717 2.00022 3.40249 5.84202.004 2.60027-1.20423 3.79152-2.63212 4.68645s-2.88891 1.15556-2.88891 1.15556l-17.07666-.32099-.0641 4.10867 17.46185.32099h.1925l.12839-.0641s2.23263-.35637 4.42966-1.73335 4.56371-4.0667 4.55806-8.15314c-.008-5.23726-3.01365-8.38263-5.84202-9.6297-1.22561-.54039-2.364-.69706-3.33829-.83457.0653-1.0223.12613-1.70726.12839-3.72348.004-3.09379.006-6.47042-1.21976-9.05192-.7034-1.48091-2.33874-5.49557-5.84201-8.98772-3.50328-3.49214-9.00872-6.54819-17.01247-6.54819zm-9.5013 27.28414c-2.59362 0-5.0649.59447-7.31857 1.54075l1.99014 4.36547c1.64591-.66384 3.4337-1.09137 5.32843-1.09137 7.86716 0 14.12355 6.32059 14.12355 14.18775s-6.25639 14.12356-14.12355 14.12356c-1.98724 0-3.87522-.36467-5.58522-1.09137l-1.99014 4.36547c2.31803 1.01155 4.8887 1.54075 7.57536 1.54075 10.45963 0 18.9384-8.47878 18.9384-18.93841 0-10.45962-8.47877-19.0026-18.9384-19.0026z" fill="#00bcf2" transform="translate(-628.905 -610.536)"/></svg>