<svg enable-background="new 0 0 512 512" viewBox="0 0 512 512" xmlns="http://www.w3.org/2000/svg"><path d="m320.674 18.863v64.674h-129.348v-64.674c0-5.953 4.826-10.779 10.779-10.779h107.789c5.954 0 10.78 4.826 10.78 10.779z" fill="#b79c79"/><path d="m320.674 18.863v64.674h-32.337v-64.674c0-5.953-4.826-10.779-10.779-10.779h32.337c5.953 0 10.779 4.826 10.779 10.779z" fill="#a88d68"/><path d="m482.358 406.905h-452.716c-11.906 0-21.558-9.651-21.558-21.558v-301.81c0-11.906 9.651-21.558 21.558-21.558h452.716c11.906 0 21.558 9.651 21.558 21.558v301.811c0 11.906-9.652 21.557-21.558 21.557z" fill="#fff873"/><path d="m503.916 83.537v301.811c0 11.906-9.651 21.558-21.558 21.558h-32.337c11.906 0 21.558-9.651 21.558-21.558v-301.811c0-11.906-9.651-21.558-21.558-21.558h32.337c11.906 0 21.558 9.651 21.558 21.558z" fill="#ffe44c"/><path d="m503.916 212.884v172.463c0 11.906-9.651 21.558-21.558 21.558h-117.777-109.351-225.588c-11.906 0-21.558-9.651-21.558-21.558v-75.453h176.442c35.565 0 69.663 8.757 99.855 24.546 35.788-73.9 110.925-121.556 193.998-121.556z" fill="#8ec155"/><path d="m503.916 212.884v172.463c0 11.906-9.651 21.558-21.558 21.558h-32.337c11.906 0 21.558-9.651 21.558-21.558v-172.347c2.261-.071 4.527-.115 6.8-.115h25.537z" fill="#84ab4f"/><path d="m299.116 406.905h-269.474c-11.906 0-21.558-9.651-21.558-21.558v-75.453h110.977c73.468.001 140.729 37.275 180.055 97.011z" fill="#aeef66"/><path d="m428.463 396.126v21.558c0 5.953-4.826 10.779-10.779 10.779h-45.335l39.946 75.453h-64.674l-39.946-75.453h-103.35l-39.946 75.453h-64.674l39.946-75.453h-45.335c-5.953 0-10.779-4.826-10.779-10.779v-21.558c0-5.953 4.826-10.779 10.779-10.779h323.368c5.953 0 10.779 4.826 10.779 10.779z" fill="#b79c79"/><path d="m428.463 396.126v21.558c0 5.953-4.826 10.779-10.779 10.779h-45.335l39.946 75.453h-26.947l-39.946-75.453h-141.077l-39.946 75.453h-26.947l39.946-75.453h-83.062c-5.953 0-10.779-4.826-10.779-10.779v-21.558c0 5.953 4.826 10.779 10.779 10.779h323.368c5.953 0 10.779-4.825 10.779-10.779z" fill="#a88d68"/><path d="m29.642 61.979h96.74c19.932 16.807 32.607 41.95 32.607 70.063 0 50.601-41.02 91.621-91.621 91.621-22.615 0-43.303-8.21-59.284-21.792v-118.334c0-11.907 9.652-21.558 21.558-21.558z" fill="#ffd327"/><path d="m158.989 132.042c0 50.601-41.02 91.621-91.621 91.621-5.537 0-10.957-.499-16.222-1.442 42.911-7.619 75.507-45.08 75.507-90.179 0-28.114-12.674-53.257-32.607-70.063h32.337c19.933 16.806 32.606 41.949 32.606 70.063z" fill="#ffc200"/><path d="m342.232 180.547c0 11.906-9.651 21.558-21.558 21.558h-86.232c-11.906 0-21.558-9.651-21.558-21.558 0-3.931 1.069-7.606 2.907-10.779h-78.36c-11.906 0-21.558-9.651-21.558-21.558 0-11.906 9.651-21.558 21.558-21.558h140.126c11.906 0 21.558 9.651 21.558 21.558 0 3.931-1.069 7.606-2.907 10.779h24.465c11.907 0 21.559 9.652 21.559 21.558z" fill="#aff2d8"/><path d="m342.218 179.762c.435 12.264-9.377 22.344-21.544 22.344h-16.168c8.929 0 16.168-7.239 16.168-16.168s-7.239-16.168-16.168-16.168h-5.389-21.558-21.559-5.389c-3.152 0-5.671-2.706-5.365-5.92.267-2.803 2.781-4.859 5.596-4.859h5.158 5.389c8.929 0 16.168-7.239 16.168-16.168s-7.239-16.168-16.168-16.168h15.68.488v.023c10.968.24 20.392 8.455 21.455 19.416.459 4.729-.64 9.16-2.805 12.898h2.908 21.042c11.69-.003 21.646 9.087 22.061 20.77z" fill="#a1e2cd"/><path d="m436.547 417.684v-2.695h45.811c16.344 0 29.642-13.298 29.642-29.642v-301.81c0-16.344-13.298-29.642-29.642-29.642h-153.6v-35.032c0-10.4-8.463-18.863-18.863-18.863h-107.79c-10.401 0-18.863 8.463-18.863 18.863v35.032h-56.8c-.036 0-.074 0-.112 0h-96.688c-16.344 0-29.642 13.298-29.642 29.642v118.278.102 183.43c0 16.344 13.298 29.642 29.642 29.642h45.811v2.695c0 10.401 8.463 18.863 18.863 18.863h31.908l-31.385 59.284h-86.755c-4.466 0-8.084 3.618-8.084 8.084s3.618 8.085 8.084 8.085h269.476c4.466 0 8.084-3.618 8.084-8.084s-3.618-8.084-8.084-8.084h-99.754l31.386-59.284h93.615l31.386 59.284h-24.299c-4.466 0-8.084 3.618-8.084 8.084s3.618 8.084 8.084 8.084h194.021c4.466 0 8.084-3.618 8.084-8.084s-3.618-8.084-8.084-8.084h-13.474v-56.589c0-4.466-3.618-8.084-8.084-8.084s-8.084 3.618-8.084 8.084v56.589h-8.477l-13.935-27.868c-1.995-3.991-6.849-5.61-10.847-3.615-3.993 1.997-5.612 6.852-3.615 10.847l10.319 20.636h-30.557l-31.385-59.284h31.908c10.401-.001 18.863-8.463 18.863-18.864zm-237.136-374.568h88.926c4.466 0 8.084-3.618 8.084-8.084s-3.618-8.084-8.084-8.084h-88.926v-8.084c0-1.486 1.208-2.695 2.695-2.695h107.789c1.486 0 2.695 1.208 2.695 2.695v35.032h-113.179zm-39.9 452.716h-46.379l31.385-59.284h46.38zm239.356 0h-46.379l-31.386-59.284h46.38zm-26.364-75.453c-.106-.002-.211-.002-.321 0h-64.42c-.06 0-.124 0-.186 0h-103.152c-.063 0-.126 0-.186 0h-64.42c-.109-.002-.215-.002-.321 0h-45.18c-1.486 0-2.695-1.208-2.695-2.695v-21.558c0-1.486 1.208-2.695 2.695-2.695h269.474c4.466 0 8.084-3.618 8.084-8.084s-3.618-8.084-8.084-8.084h-269.475c-10.401 0-18.863 8.463-18.863 18.863v2.695h-45.811c-7.43 0-13.474-6.044-13.474-13.474v-67.368h168.357c47.785 0 94.473 16.677 131.463 46.96 3.455 2.825 8.547 2.32 11.377-1.135 2.827-3.455 2.32-8.549-1.135-11.377-39.871-32.64-90.196-50.616-141.705-50.616h-168.357v-84.233c15.386 9.213 33.088 14.17 51.2 14.17 24.397 0 47.878-8.904 66.116-25.073 3.341-2.962 3.649-8.071.687-11.413-2.962-3.341-8.07-3.648-11.413-.687-15.277 13.545-34.949 21.004-55.39 21.004-18.554 0-36.592-6.209-51.2-17.554v-114.488c0-7.43 6.044-13.474 13.474-13.474h93.711c14.236 12.843 23.46 29.789 26.475 48.505h-12.397c-16.344 0-29.642 13.298-29.642 29.642s13.298 29.642 29.642 29.642h67.492c-.082.895-.124 1.794-.124 2.695 0 16.344 13.298 29.642 29.642 29.642h86.232c16.344 0 29.642-13.298 29.642-29.642s-13.298-29.642-29.642-29.642h-13.598c.082-.895.124-1.794.124-2.695 0-16.344-13.298-29.642-29.642-29.642h-111.384c-2.407-17.911-9.54-34.547-20.678-48.505h336.864c7.43 0 13.474 6.044 13.474 13.474v121.263h-17.452c-34.829 0-69.655 8.284-100.713 23.955-30.626 15.453-57.678 38.107-78.231 65.51-2.679 3.571-1.954 8.639 1.617 11.318 3.573 2.679 8.639 1.954 11.318-1.617 38.978-51.971 101.036-82.998 166.01-82.998h17.452v164.379c0 7.43-6.044 13.474-13.474 13.474h-45.811v-2.695c0-10.401-8.463-18.863-18.863-18.863h-24.073c-4.466 0-8.084 3.618-8.084 8.084s3.618 8.084 8.084 8.084h24.073c1.486 0 2.695 1.208 2.695 2.695v21.558c0 1.486-1.208 2.695-2.695 2.695zm-83.298-257.352c1.444 2.503 4.113 4.046 7.004 4.046h24.465c7.43 0 13.474 6.044 13.474 13.474s-6.044 13.474-13.474 13.474h-86.232c-7.43 0-13.474-6.044-13.474-13.474 0-2.38.611-4.644 1.819-6.727 1.449-2.501 1.452-5.586.009-8.09-1.444-2.503-4.113-4.046-7.004-4.046h-78.361c-7.43 0-13.474-6.044-13.474-13.474s6.044-13.474 13.474-13.474h140.126c7.43 0 13.474 6.044 13.474 13.474 0 2.38-.611 4.644-1.819 6.727-1.448 2.502-1.451 5.586-.007 8.09z"/></svg>